# xmcd
#
# Track frame offsets: 
#        150
#        16250
#        29330
#        46460
#        62245
#        81870
#        97370
#        112505
#        131942
#        145167
#        161762
#        175565
#        193955
#
# Disc length: 2773 seconds
#
# Revision: 0
# Processed by: cddbd v1.5.1PL2 Copyright (c) Steve Scherf et al.
# Submitted via: ExactAudioCopy v0.95b3
#
DISCID=b40ad30d
DTITLE=Music For All Occasions - The Mavericks
DYEAR=1900
DGENRE=Country
TTITLE0=Foolish Heart
TTITLE1=One Step Away
TTITLE2=Here Comes The Rain
TTITLE3=Missing You
TTITLE4=All You Ever Do Is Bring Me Down
TTITLE5=My Sweet Flame
TTITLE6=The Writing On The Wall
TTITLE7=Loving You 
TTITLE8=If You Only Knew
TTITLE9=I'm Not Gonna Cry For You
TTITLE10=Something Stupid
TTITLE11=Blue Moon
TTITLE12=I Don't Care If You Love Me Anymore
EXTD=
EXTT0=
EXTT1=
EXTT2=
EXTT3=
EXTT4=
EXTT5=
EXTT6=
EXTT7=
EXTT8=
EXTT9=
EXTT10=
EXTT11=
EXTT12=
PLAYORDER=
